<svg width="24" height="24" viewBox="0 0 24 24" fill="none" xmlns="http://www.w3.org/2000/svg">
<path d="M5.37214 21.0003H0.396429V6.97995H5.37214V21.0003ZM2.88161 5.06745C1.29054 5.06745 0 3.91433 0 2.52214C1.13882e-08 1.85342 0.303597 1.21209 0.844003 0.739235C1.38441 0.26638 2.11736 0.000732422 2.88161 0.000732422C3.64586 0.000732422 4.3788 0.26638 4.91921 0.739235C5.45962 1.21209 5.76321 1.85342 5.76321 2.52214C5.76321 3.91433 4.47214 5.06745 2.88161 5.06745ZM23.9946 21.0003H19.0296V14.1753C19.0296 12.5487 18.9921 10.4628 16.4427 10.4628C13.8557 10.4628 13.4593 12.2299 13.4593 14.0581V21.0003H8.48893V6.97995H13.2611V8.89245H13.3307C13.995 7.79089 15.6177 6.62839 18.0386 6.62839C23.0743 6.62839 24 9.52995 24 13.2987V21.0003H23.9946Z" fill="#232020"/>
</svg>
