<svg width="24" height="24" viewBox="0 0 24 24" fill="none" xmlns="http://www.w3.org/2000/svg">
<path d="M20.4054 4.55149C18.1607 2.58274 15.1714 1.49992 11.9946 1.49992C5.4375 1.49992 0.101786 6.16867 0.101786 11.9062C0.101786 13.739 0.648214 15.5296 1.6875 17.1093L0 22.4999L6.30536 21.0515C8.04107 21.8812 9.99643 22.3171 11.9893 22.3171H11.9946C18.5464 22.3171 24 17.6484 24 11.9109C24 9.13117 22.65 6.52024 20.4054 4.55149ZM11.9946 20.564C10.2161 20.564 8.475 20.1468 6.95893 19.3593L6.6 19.1718L2.86071 20.0296L3.85714 16.8374L3.62143 16.5093C2.63036 15.1312 2.11071 13.5421 2.11071 11.9062C2.11071 7.13899 6.54643 3.25774 12 3.25774C14.6411 3.25774 17.1214 4.15774 18.9857 5.79367C20.85 7.42961 21.9964 9.59992 21.9911 11.9109C21.9911 16.6827 17.4429 20.564 11.9946 20.564ZM17.4161 14.0859C17.1214 13.9546 15.6589 13.3265 15.3857 13.2421C15.1125 13.153 14.9143 13.1109 14.7161 13.3734C14.5179 13.6359 13.95 14.2171 13.7732 14.3952C13.6018 14.5687 13.425 14.5921 13.1304 14.4609C11.3839 13.6968 10.2375 13.0968 9.08571 11.3671C8.78036 10.9077 9.39107 10.9405 9.95893 9.9468C10.0554 9.77336 10.0071 9.62336 9.93214 9.49211C9.85714 9.36086 9.2625 8.08117 9.01607 7.56086C8.775 7.05461 8.52857 7.12492 8.34643 7.11555C8.175 7.10617 7.97679 7.10617 7.77857 7.10617C7.58036 7.10617 7.25893 7.1718 6.98571 7.42961C6.7125 7.69211 5.94643 8.32024 5.94643 9.59992C5.94643 10.8796 7.0125 12.1171 7.15714 12.2905C7.30714 12.464 9.25179 15.089 12.2357 16.2187C14.1214 16.9312 14.8607 16.9921 15.8036 16.8702C16.3768 16.7952 17.5607 16.2421 17.8071 15.6327C18.0536 15.0234 18.0536 14.503 17.9786 14.3952C17.9089 14.278 17.7107 14.2124 17.4161 14.0859Z" fill="black"/>
</svg>
